<svg width="16" height="16" viewBox="0 0 16 16" fill="none" xmlns="http://www.w3.org/2000/svg">
<path fill-rule="evenodd" clip-rule="evenodd" d="M7.5 13H9L5.75 3H4.25L1 13H2.5L3.3125 10.5H6.6875L7.5 13ZM13.6281 13H14.9969V8.79375C14.9969 7.24062 14.2094 6.4625 12.6313 6.4625C11.7688 6.4625 11.0094 6.65625 10.35 7.04688V8.28438C10.9469 7.77187 11.6188 7.51562 12.3625 7.51562C13.2094 7.51562 13.6313 7.95938 13.6313 8.85L11.7781 9.1125C10.4188 9.30938 9.74063 9.99688 9.74063 11.175C9.74063 11.725 9.91563 12.1656 10.2625 12.5C10.6125 12.8344 11.0906 13 11.7063 13C12.5406 13 13.1719 12.625 13.6031 11.8781H13.6281V13ZM12.3219 9.96875L13.6344 9.78438V10.3313C13.6344 10.7906 13.4906 11.1719 13.2094 11.475C12.925 11.7781 12.5688 11.9281 12.1375 11.9281C11.8219 11.9281 11.5688 11.8438 11.3781 11.675C11.1875 11.5063 11.0938 11.2906 11.0938 11.025C11.0938 10.6625 11.1969 10.4094 11.4031 10.2656C11.6094 10.1219 11.9156 10.0219 12.3219 9.96875ZM5 5.30625L3.8 9H6.2L5 5.30625Z" fill="#233737"/>
</svg>
