<svg width="16" height="16" viewBox="0 0 16 16" fill="none" xmlns="http://www.w3.org/2000/svg">
<path fill-rule="evenodd" clip-rule="evenodd" d="M14.351 8.76001C14.4349 8.8432 14.5485 8.88958 14.6666 8.8889C14.8452 8.88816 15.006 8.78056 15.0749 8.61574C15.1437 8.45092 15.1072 8.2609 14.9822 8.13334L8.31549 1.46667C8.14214 1.29435 7.86217 1.29435 7.68882 1.46667L1.02215 8.13334C0.871143 8.30968 0.881296 8.57254 1.04546 8.7367C1.20962 8.90087 1.47248 8.91102 1.64882 8.76001L7.99993 2.40445L14.351 8.76001ZM2.66662 9.25778L7.99995 3.90667L13.3333 9.22667V14.6667C13.3333 15.1576 12.9353 15.5556 12.4444 15.5556H9.33328V11.1111H6.66662V15.5556H3.5555C3.06458 15.5556 2.66662 15.1576 2.66662 14.6667V9.25778Z" fill="#233737"/>
</svg>
