<svg width="16" height="16" viewBox="0 0 16 16" fill="none" xmlns="http://www.w3.org/2000/svg">
<path fill-rule="evenodd" clip-rule="evenodd" d="M4 10C2.89375 10 2 9.10625 2 8C2 6.89375 2.89375 6 4 6H7.4625C6.77187 4.80625 5.48125 4 4 4C1.79063 4 0 5.79063 0 8C0 10.2094 1.79063 12 4 12C5.47813 12 6.77187 11.1937 7.4625 10H4ZM12 12C10.5188 12 9.22813 11.1937 8.5375 10H12C13.1063 10 14 9.10625 14 8C14 6.89375 13.1031 6 12 6H8.5375C9.22813 4.80625 10.5219 4 12 4C14.2094 4 16 5.79063 16 8C16 10.2094 14.2094 12 12 12ZM3 8C3 7.44688 3.44688 7 4 7H12C12.5531 7 13 7.44688 13 8C13 8.55312 12.5531 9 12 9H4C3.44688 9 3 8.55312 3 8Z" fill="#233737"/>
</svg>
