<?xml version="1.0" encoding="UTF-8" standalone="no"?>
<!-- Created with Inkscape (http://www.inkscape.org/) -->

<svg
   xmlns:dc="http://purl.org/dc/elements/1.1/"
   xmlns:cc="http://creativecommons.org/ns#"
   xmlns:rdf="http://www.w3.org/1999/02/22-rdf-syntax-ns#"
   xmlns:svg="http://www.w3.org/2000/svg"
   xmlns="http://www.w3.org/2000/svg"
   xmlns:sodipodi="http://sodipodi.sourceforge.net/DTD/sodipodi-0.dtd"
   xmlns:inkscape="http://www.inkscape.org/namespaces/inkscape"
   width="298.58438"
   height="372.24121"
   viewBox="0 0 79.000452 98.488823"
   version="1.1"
   id="svg6849"
   inkscape:version="0.92.3 (2405546, 2018-03-11)"
   sodipodi:docname="logo_1.svg"
   inkscape:export-filename="/home/jean-pascal/Desktop/nomaze/nomaze.github.io/img/logo_2.png"
   inkscape:export-xdpi="96"
   inkscape:export-ydpi="96">
  <defs
     id="defs6843" />
  <sodipodi:namedview
     id="base"
     pagecolor="#ffffff"
     bordercolor="#666666"
     borderopacity="1.0"
     inkscape:pageopacity="0.0"
     inkscape:pageshadow="2"
     inkscape:zoom="0.98994949"
     inkscape:cx="263.72552"
     inkscape:cy="121.49421"
     inkscape:document-units="mm"
     inkscape:current-layer="layer1"
     showgrid="false"
     inkscape:snap-global="false"
     inkscape:window-width="1853"
     inkscape:window-height="1025"
     inkscape:window-x="67"
     inkscape:window-y="27"
     inkscape:window-maximized="1"
     fit-margin-top="0"
     fit-margin-left="0"
     fit-margin-right="0"
     fit-margin-bottom="0"
     units="px"
     showguides="false" />
  <metadata
     id="metadata6846">
    <rdf:RDF>
      <cc:Work
         rdf:about="">
        <dc:format>image/svg+xml</dc:format>
        <dc:type
           rdf:resource="http://purl.org/dc/dcmitype/StillImage" />
        <dc:title />
      </cc:Work>
    </rdf:RDF>
  </metadata>
  <g
     inkscape:label="Layer 1"
     inkscape:groupmode="layer"
     id="layer1"
     transform="translate(-67.089062,-147.56865)">
    <path
       inkscape:connector-curvature="0"
       id="path7394"
       d="m 111.74901,153.75341 a 38.000225,38.000225 0 0 1 32.82535,39.9834 38.000225,38.000225 0 0 1 -37.46769,35.66999 38.000225,38.000225 0 0 1 -38.322409,-34.75008 38.000225,38.000225 0 0 1 31.845219,-40.76834"
       clip-path="none"
       mask="none"
       style="opacity:1;fill:none;fill-opacity:1;fill-rule:nonzero;stroke:#ffffff;stroke-width:3;stroke-linecap:square;stroke-linejoin:round;stroke-miterlimit:4;stroke-dasharray:none;stroke-dashoffset:0;stroke-opacity:1" />
    <path
       style="opacity:1;fill:none;fill-opacity:1;fill-rule:nonzero;stroke:#ffffff;stroke-width:7.55905533;stroke-linecap:square;stroke-linejoin:round;stroke-miterlimit:4;stroke-dasharray:none;stroke-dashoffset:0;stroke-opacity:1"
       clip-path="none"
       d="M 44.486838 164.64016 A 105.02719 105.02719 0 0 1 83.637812 84.248012 "
       id="path1074"
       transform="matrix(0.26458333,0,0,0.26458333,67.089062,147.56865)" />
    <path
       style="opacity:1;fill:none;fill-opacity:1;fill-rule:nonzero;stroke:#ffffff;stroke-width:7.55905533;stroke-linecap:square;stroke-linejoin:round;stroke-miterlimit:4;stroke-dasharray:none;stroke-dashoffset:0;stroke-opacity:1"
       clip-path="none"
       d="M 158.43663 270.70112 A 105.02719 105.02719 0 0 1 149.5045 271.08163 A 105.02719 105.02719 0 0 1 50.65406 201.54106 "
       id="path1069"
       transform="matrix(0.26458333,0,0,0.26458333,67.089062,147.56865)" />
    <path
       style="opacity:1;fill:none;fill-opacity:1;fill-rule:nonzero;stroke:#ffffff;stroke-width:7.55905533;stroke-linecap:square;stroke-linejoin:round;stroke-miterlimit:4;stroke-dasharray:none;stroke-dashoffset:0;stroke-opacity:1"
       clip-path="none"
       d="M 252.03566 188.81569 A 105.02719 105.02719 0 0 1 194.54609 260.93313 "
       id="path1064"
       transform="matrix(0.26458333,0,0,0.26458333,67.089062,147.56865)" />
    <path
       style="opacity:1;fill:none;fill-opacity:1;fill-rule:nonzero;stroke:#ffffff;stroke-width:7.55905533;stroke-linecap:square;stroke-linejoin:round;stroke-miterlimit:4;stroke-dasharray:none;stroke-dashoffset:0;stroke-opacity:1"
       clip-path="none"
       d="M 119.98792 65.260174 A 105.02719 105.02719 0 0 1 149.5045 61.027237 A 105.02719 105.02719 0 0 1 253.49191 151.31222 "
       id="path1051"
       transform="matrix(0.26458333,0,0,0.26458333,67.089062,147.56865)" />
    <path
       style="opacity:1;fill:none;fill-opacity:1;fill-rule:nonzero;stroke:#ffffff;stroke-width:7.55905533;stroke-linecap:square;stroke-linejoin:round;stroke-miterlimit:4;stroke-dasharray:none;stroke-dashoffset:0;stroke-opacity:1"
       clip-path="none"
       d="M 106.37103 113.3594 A 68.007732 68.007732 0 0 1 149.25414 98.135091 A 68.007732 68.007732 0 0 1 185.28311 108.46296 "
       id="path1079"
       transform="matrix(0.26458333,0,0,0.26458333,67.089062,147.56865)" />
    <path
       style="opacity:1;fill:none;fill-opacity:1;fill-rule:nonzero;stroke:#ffffff;stroke-width:7.55905533;stroke-linecap:square;stroke-linejoin:round;stroke-miterlimit:4;stroke-dasharray:none;stroke-dashoffset:0;stroke-opacity:1"
       clip-path="none"
       d="M 204.95563 205.16078 A 68.007732 68.007732 0 0 1 149.25414 234.15058 A 68.007732 68.007732 0 0 1 81.246423 166.14282 A 68.007732 68.007732 0 0 1 84.900695 144.15001 "
       id="path1059"
       transform="matrix(0.26458333,0,0,0.26458333,67.089062,147.56865)" />
    <path
       style="opacity:1;fill:none;fill-opacity:1;fill-rule:nonzero;stroke:#ffffff;stroke-width:7.55905533;stroke-linecap:square;stroke-linejoin:round;stroke-miterlimit:4;stroke-dasharray:none;stroke-dashoffset:0;stroke-opacity:1"
       clip-path="none"
       d="M 210.36079 136.29266 A 68.007733 68.007733 0 0 1 217.2619 166.14282 L 217.2619 166.14282 A 68.007733 68.007733 0 0 1 217.16498 169.77235 "
       id="path1054"
       transform="matrix(0.26458333,0,0,0.26458333,67.089062,147.56865)" />
    <path
       style="opacity:1;fill:none;fill-opacity:1;fill-rule:nonzero;stroke:#ffffff;stroke-width:7.55905533;stroke-linecap:square;stroke-linejoin:round;stroke-miterlimit:4;stroke-dasharray:none;stroke-dashoffset:0;stroke-opacity:1"
       clip-path="none"
       d="M 130.80904 195.42474 A 33.340431 33.340431 0 0 1 116.53842 168.0765 A 33.340431 33.340431 0 0 1 149.87886 134.73604 A 33.340431 33.340431 0 0 1 183.21928 168.0765 L 183.21928 168.0765 A 33.340431 33.340431 0 0 1 168.20057 195.93145 "
       id="path1082"
       transform="matrix(0.26458333,0,0,0.26458333,67.089062,147.56865)" />
    <path
       style="fill:none;stroke:#ffffff;stroke-width:2.07459998;stroke-linecap:square;stroke-linejoin:miter;stroke-miterlimit:4;stroke-dasharray:none;stroke-opacity:1"
       d="m 134.37803,187.73112 9.99004,-0.67937"
       id="path8147-3"
       inkscape:connector-curvature="0"
       inkscape:transform-center-x="0.25714415"
       inkscape:transform-center-y="0.94335749"
       clip-path="none" />
    <path
       style="fill:none;stroke:#ffffff;stroke-width:2.16485047;stroke-linecap:square;stroke-linejoin:miter;stroke-miterlimit:4;stroke-dasharray:none;stroke-opacity:1"
       d="m 82.584365,161.44636 12.686951,16.08082"
       id="path8147"
       inkscape:connector-curvature="0"
       inkscape:transform-center-x="1.5937273"
       inkscape:transform-center-y="0.85620109"
       clip-path="none" />
    <path
       style="fill:none;stroke:#ffffff;stroke-width:2;stroke-linecap:square;stroke-linejoin:miter;stroke-miterlimit:4;stroke-dasharray:none;stroke-opacity:1"
       d="m 116.28386,176.29034 -4.53571,8.50446"
       id="path8179"
       inkscape:connector-curvature="0"
       clip-path="none" />
    <path
       style="fill:none;stroke:#ffffff;stroke-width:1.881953;stroke-linecap:square;stroke-linejoin:miter;stroke-miterlimit:4;stroke-dasharray:none;stroke-opacity:1"
       d="m 111.34763,199.38245 5.08966,7.38047"
       id="path8196"
       inkscape:connector-curvature="0"
       clip-path="none" />
    <path
       style="fill:none;stroke:#ffffff;stroke-width:2;stroke-linecap:square;stroke-linejoin:miter;stroke-miterlimit:4;stroke-dasharray:none;stroke-opacity:1"
       d="m 122.70947,183.66087 8.40227,-4.85105"
       id="path8207"
       inkscape:connector-curvature="0"
       clip-path="none" />
    <path
       style="fill:none;stroke:#ffffff;stroke-width:2;stroke-linecap:square;stroke-linejoin:miter;stroke-miterlimit:4;stroke-dasharray:none;stroke-opacity:1"
       d="m 128.28461,209.45775 7.9375,5.76413"
       id="path8209"
       inkscape:connector-curvature="0"
       clip-path="none" />
    <path
       style="fill:none;stroke:#ffffff;stroke-width:2.05066061;stroke-linecap:square;stroke-linejoin:miter;stroke-miterlimit:4;stroke-dasharray:none;stroke-opacity:1"
       d="m 108.71895,209.67233 0.29428,9.58719"
       id="path8211"
       inkscape:connector-curvature="0"
       clip-path="none" />
  </g>
</svg>
