<?xml version="1.0" encoding="UTF-8" standalone="no"?>
<!-- Created with Inkscape (http://www.inkscape.org/) -->

<svg
   xmlns:dc="http://purl.org/dc/elements/1.1/"
   xmlns:cc="http://creativecommons.org/ns#"
   xmlns:rdf="http://www.w3.org/1999/02/22-rdf-syntax-ns#"
   xmlns:svg="http://www.w3.org/2000/svg"
   xmlns="http://www.w3.org/2000/svg"
   xmlns:sodipodi="http://sodipodi.sourceforge.net/DTD/sodipodi-0.dtd"
   xmlns:inkscape="http://www.inkscape.org/namespaces/inkscape"
   width="298.58438"
   height="372.24121"
   viewBox="0 0 79.000452 98.488823"
   version="1.1"
   id="svg6849"
   inkscape:version="0.92.3 (2405546, 2018-03-11)"
   sodipodi:docname="logo_1.svg"
   inkscape:export-filename="/home/jean-pascal/Desktop/nomaze/nomaze.github.io/img/logo_2.png"
   inkscape:export-xdpi="96"
   inkscape:export-ydpi="96">
  <defs
     id="defs6843" />
  <sodipodi:namedview
     id="base"
     pagecolor="#ffffff"
     bordercolor="#666666"
     borderopacity="1.0"
     inkscape:pageopacity="0.0"
     inkscape:pageshadow="2"
     inkscape:zoom="0.98994949"
     inkscape:cx="263.72552"
     inkscape:cy="121.49421"
     inkscape:document-units="mm"
     inkscape:current-layer="layer1"
     showgrid="false"
     inkscape:snap-global="false"
     inkscape:window-width="1853"
     inkscape:window-height="1025"
     inkscape:window-x="67"
     inkscape:window-y="27"
     inkscape:window-maximized="1"
     fit-margin-top="0"
     fit-margin-left="0"
     fit-margin-right="0"
     fit-margin-bottom="0"
     units="px"
     showguides="false" />
  <metadata
     id="metadata6846">
    <rdf:RDF>
      <cc:Work
         rdf:about="">
        <dc:format>image/svg+xml</dc:format>
        <dc:type
           rdf:resource="http://purl.org/dc/dcmitype/StillImage" />
        <dc:title />
      </cc:Work>
    </rdf:RDF>
  </metadata>
  <g
     inkscape:label="Layer 1"
     inkscape:groupmode="layer"
     id="layer1"
     transform="translate(-67.089062,-147.56865)">
    <path
       inkscape:connector-curvature="0"
       id="path7394"
       d="m 111.74901,153.75341 a 38.000225,38.000225 0 0 1 32.82535,39.9834 38.000225,38.000225 0 0 1 -37.46769,35.66999 38.000225,38.000225 0 0 1 -38.322409,-34.75008 38.000225,38.000225 0 0 1 31.845219,-40.76834"
       clip-path="none"
       mask="none"
       style="opacity:1;fill:none;fill-opacity:1;fill-rule:nonzero;stroke:#010000;stroke-width:3;stroke-linecap:square;stroke-linejoin:round;stroke-miterlimit:4;stroke-dasharray:none;stroke-dashoffset:0;stroke-opacity:1" />
    <path
       style="opacity:1;fill:none;fill-opacity:1;fill-rule:nonzero;stroke:#000000;stroke-width:7.55905533;stroke-linecap:square;stroke-linejoin:round;stroke-miterlimit:4;stroke-dasharray:none;stroke-dashoffset:0;stroke-opacity:1"
       clip-path="none"
       d="M 44.486838 164.64016 A 105.02719 105.02719 0 0 1 83.637812 84.248012 "
       id="path1074"
       transform="matrix(0.26458333,0,0,0.26458333,67.089062,147.56865)" />
    <path
       style="opacity:1;fill:none;fill-opacity:1;fill-rule:nonzero;stroke:#000000;stroke-width:7.55905533;stroke-linecap:square;stroke-linejoin:round;stroke-miterlimit:4;stroke-dasharray:none;stroke-dashoffset:0;stroke-opacity:1"
       clip-path="none"
       d="M 158.43663 270.70112 A 105.02719 105.02719 0 0 1 149.5045 271.08163 A 105.02719 105.02719 0 0 1 50.65406 201.54106 "
       id="path1069"
       transform="matrix(0.26458333,0,0,0.26458333,67.089062,147.56865)" />
    <path
       style="opacity:1;fill:none;fill-opacity:1;fill-rule:nonzero;stroke:#000000;stroke-width:7.55905533;stroke-linecap:square;stroke-linejoin:round;stroke-miterlimit:4;stroke-dasharray:none;stroke-dashoffset:0;stroke-opacity:1"
       clip-path="none"
       d="M 252.03566 188.81569 A 105.02719 105.02719 0 0 1 194.54609 260.93313 "
       id="path1064"
       transform="matrix(0.26458333,0,0,0.26458333,67.089062,147.56865)" />
    <path
       style="opacity:1;fill:none;fill-opacity:1;fill-rule:nonzero;stroke:#000000;stroke-width:7.55905533;stroke-linecap:square;stroke-linejoin:round;stroke-miterlimit:4;stroke-dasharray:none;stroke-dashoffset:0;stroke-opacity:1"
       clip-path="none"
       d="M 119.98792 65.260174 A 105.02719 105.02719 0 0 1 149.5045 61.027237 A 105.02719 105.02719 0 0 1 253.49191 151.31222 "
       id="path1051"
       transform="matrix(0.26458333,0,0,0.26458333,67.089062,147.56865)" />
    <path
       style="opacity:1;fill:none;fill-opacity:1;fill-rule:nonzero;stroke:#000000;stroke-width:7.55905533;stroke-linecap:square;stroke-linejoin:round;stroke-miterlimit:4;stroke-dasharray:none;stroke-dashoffset:0;stroke-opacity:1"
       clip-path="none"
       d="M 106.37103 113.3594 A 68.007732 68.007732 0 0 1 149.25414 98.135091 A 68.007732 68.007732 0 0 1 185.28311 108.46296 "
       id="path1079"
       transform="matrix(0.26458333,0,0,0.26458333,67.089062,147.56865)" />
    <path
       style="opacity:1;fill:none;fill-opacity:1;fill-rule:nonzero;stroke:#000000;stroke-width:7.55905533;stroke-linecap:square;stroke-linejoin:round;stroke-miterlimit:4;stroke-dasharray:none;stroke-dashoffset:0;stroke-opacity:1"
       clip-path="none"
       d="M 204.95563 205.16078 A 68.007732 68.007732 0 0 1 149.25414 234.15058 A 68.007732 68.007732 0 0 1 81.246423 166.14282 A 68.007732 68.007732 0 0 1 84.900695 144.15001 "
       id="path1059"
       transform="matrix(0.26458333,0,0,0.26458333,67.089062,147.56865)" />
    <path
       style="opacity:1;fill:none;fill-opacity:1;fill-rule:nonzero;stroke:#000000;stroke-width:7.55905533;stroke-linecap:square;stroke-linejoin:round;stroke-miterlimit:4;stroke-dasharray:none;stroke-dashoffset:0;stroke-opacity:1"
       clip-path="none"
       d="M 210.36079 136.29266 A 68.007733 68.007733 0 0 1 217.2619 166.14282 L 217.2619 166.14282 A 68.007733 68.007733 0 0 1 217.16498 169.77235 "
       id="path1054"
       transform="matrix(0.26458333,0,0,0.26458333,67.089062,147.56865)" />
    <path
       style="opacity:1;fill:none;fill-opacity:1;fill-rule:nonzero;stroke:#000000;stroke-width:7.55905533;stroke-linecap:square;stroke-linejoin:round;stroke-miterlimit:4;stroke-dasharray:none;stroke-dashoffset:0;stroke-opacity:1"
       clip-path="none"
       d="M 130.80904 195.42474 A 33.340431 33.340431 0 0 1 116.53842 168.0765 A 33.340431 33.340431 0 0 1 149.87886 134.73604 A 33.340431 33.340431 0 0 1 183.21928 168.0765 L 183.21928 168.0765 A 33.340431 33.340431 0 0 1 168.20057 195.93145 "
       id="path1082"
       transform="matrix(0.26458333,0,0,0.26458333,67.089062,147.56865)" />
    <path
       style="fill:none;stroke:#000000;stroke-width:2.07459998;stroke-linecap:square;stroke-linejoin:miter;stroke-miterlimit:4;stroke-dasharray:none;stroke-opacity:1"
       d="m 134.37803,187.73112 9.99004,-0.67937"
       id="path8147-3"
       inkscape:connector-curvature="0"
       inkscape:transform-center-x="0.25714415"
       inkscape:transform-center-y="0.94335749"
       clip-path="none" />
    <path
       style="fill:none;stroke:#000000;stroke-width:2.16485047;stroke-linecap:square;stroke-linejoin:miter;stroke-miterlimit:4;stroke-dasharray:none;stroke-opacity:1"
       d="m 82.584365,161.44636 12.686951,16.08082"
       id="path8147"
       inkscape:connector-curvature="0"
       inkscape:transform-center-x="1.5937273"
       inkscape:transform-center-y="0.85620109"
       clip-path="none" />
    <path
       style="fill:none;stroke:#000000;stroke-width:2;stroke-linecap:square;stroke-linejoin:miter;stroke-miterlimit:4;stroke-dasharray:none;stroke-opacity:1"
       d="m 116.28386,176.29034 -4.53571,8.50446"
       id="path8179"
       inkscape:connector-curvature="0"
       clip-path="none" />
    <path
       style="fill:none;stroke:#000000;stroke-width:1.881953;stroke-linecap:square;stroke-linejoin:miter;stroke-miterlimit:4;stroke-dasharray:none;stroke-opacity:1"
       d="m 111.34763,199.38245 5.08966,7.38047"
       id="path8196"
       inkscape:connector-curvature="0"
       clip-path="none" />
    <path
       style="fill:none;stroke:#000000;stroke-width:2;stroke-linecap:square;stroke-linejoin:miter;stroke-miterlimit:4;stroke-dasharray:none;stroke-opacity:1"
       d="m 122.70947,183.66087 8.40227,-4.85105"
       id="path8207"
       inkscape:connector-curvature="0"
       clip-path="none" />
    <path
       style="fill:none;stroke:#000000;stroke-width:2;stroke-linecap:square;stroke-linejoin:miter;stroke-miterlimit:4;stroke-dasharray:none;stroke-opacity:1"
       d="m 128.28461,209.45775 7.9375,5.76413"
       id="path8209"
       inkscape:connector-curvature="0"
       clip-path="none" />
    <path
       style="fill:none;stroke:#000000;stroke-width:2.05066061;stroke-linecap:square;stroke-linejoin:miter;stroke-miterlimit:4;stroke-dasharray:none;stroke-opacity:1"
       d="m 108.71895,209.67233 0.29428,9.58719"
       id="path8211"
       inkscape:connector-curvature="0"
       clip-path="none" />
    <g
       id="text8274"
       style="font-style:normal;font-variant:normal;font-weight:normal;font-stretch:normal;font-size:14.63511944px;line-height:1.25;font-family:UnYetgul;-inkscape-font-specification:UnYetgul;letter-spacing:0px;word-spacing:0px;fill:#000000;fill-opacity:1;stroke:none;stroke-width:0.91469496;stroke-linecap:square"
       clip-path="none"
       aria-label="NoMaze"
       transform="translate(0.05619212,-1.8361562)">
      <path
         inkscape:connector-curvature="0"
         id="path985"
         style="font-style:normal;font-variant:normal;font-weight:normal;font-stretch:normal;font-family:UnYetgul;-inkscape-font-specification:UnYetgul;stroke-width:0.91469496;stroke-linecap:square"
         d="m 89.622834,245.91112 h -2.005011 l -3.849037,-6.74679 h -0.05854 v 6.74679 h -1.814755 v -10.03969 h 2.531875 l 3.351443,5.89795 h 0.02927 v -5.89795 h 1.814755 z" />
      <path
         inkscape:connector-curvature="0"
         id="path987"
         style="font-style:normal;font-variant:normal;font-weight:normal;font-stretch:normal;font-family:UnYetgul;-inkscape-font-specification:UnYetgul;stroke-width:0.91469496;stroke-linecap:square"
         d="m 98.155162,242.25234 q 0,1.6245 -0.995188,2.72213 -0.980553,1.083 -2.590416,1.083 -1.653769,0 -2.590417,-1.09764 -0.936647,-1.09763 -0.936647,-2.78067 0,-1.6684 0.936647,-2.7514 0.936648,-1.09763 2.590417,-1.09763 1.683038,0 2.634321,1.11226 0.951283,1.09764 0.951283,2.80995 z m -2.312349,0.0146 q 0,-0.36588 -0.01464,-0.52686 0,-0.16099 -0.02927,-0.52687 -0.02927,-0.36587 -0.117081,-0.55613 -0.07318,-0.20489 -0.204892,-0.43905 -0.117081,-0.2488 -0.351243,-0.35125 -0.234162,-0.11708 -0.541499,-0.11708 -0.409784,0 -0.687851,0.21953 -0.263432,0.21953 -0.380513,0.61467 -0.102446,0.39515 -0.131716,0.70249 -0.02927,0.30734 -0.02927,0.73176 0,0.48295 0.01463,0.79029 0.02927,0.30734 0.131716,0.80493 0.102446,0.48296 0.365878,0.74639 0.278067,0.26344 0.702486,0.26344 0.424418,0 0.702485,-0.21953 0.278068,-0.23416 0.395149,-0.64395 0.11708,-0.40978 0.146351,-0.73175 0.02927,-0.32197 0.02927,-0.76103 z" />
      <path
         inkscape:connector-curvature="0"
         id="path989"
         style="font-style:normal;font-variant:normal;font-weight:normal;font-stretch:normal;font-family:UnYetgul;-inkscape-font-specification:UnYetgul;stroke-width:0.91469496;stroke-linecap:square"
         d="m 110.41952,245.91112 h -2.34162 v -8.18103 h -0.0585 l -2.48797,8.18103 h -1.60987 l -2.44406,-8.18103 h -0.0293 v 8.18103 h -1.975743 v -10.03969 h 3.673413 l 1.75622,6.01503 1.84402,-6.01503 h 3.67342 z" />
      <path
         inkscape:connector-curvature="0"
         id="path991"
         style="font-style:normal;font-variant:normal;font-weight:normal;font-stretch:normal;font-family:UnYetgul;-inkscape-font-specification:UnYetgul;stroke-width:0.91469496;stroke-linecap:square"
         d="m 118.82015,245.91112 h -2.13673 q -0.13172,-0.5415 -0.10245,-1.15618 -0.46832,0.67322 -1.02445,0.99519 -0.5415,0.30734 -1.34643,0.30734 -1.0391,0 -1.69768,-0.5415 -0.64394,-0.55614 -0.64394,-1.56596 0,-0.68785 0.30733,-1.18544 0.30734,-0.51223 0.80494,-0.74639 0.49759,-0.2488 1.11226,-0.42442 0.61468,-0.17562 1.22935,-0.20489 0.61468,-0.0439 1.15618,-0.11709 v -0.17562 q 0,-0.67321 -0.21953,-0.99518 -0.20489,-0.33661 -0.84883,-0.33661 -0.5415,0 -0.92202,0.27806 -0.36588,0.27807 -0.36588,0.80494 l -2.03428,-0.19026 q 0.10245,-0.84884 0.67322,-1.39034 0.5854,-0.55613 1.28789,-0.74639 0.71712,-0.19025 1.58059,-0.19025 1.55132,0 2.35626,0.67321 0.21952,0.17562 0.36587,0.39515 0.14636,0.21953 0.2049,0.43905 0.0585,0.21953 0.0878,0.48296 0.0439,0.2488 0.0293,0.4976 0,0.23416 0,0.51223 v 3.46852 q 0,0.65858 0.14635,1.11227 z m -2.34162,-3.55634 q -0.42442,0.0439 -0.73176,0.10245 -0.2927,0.0585 -0.71712,0.20489 -0.42442,0.13172 -0.65858,0.40978 -0.21952,0.26344 -0.21952,0.64395 0,0.43905 0.24879,0.71712 0.26343,0.26343 0.70249,0.26343 0.68785,0 1.02446,-0.5415 0.35124,-0.5415 0.35124,-1.27325 z" />
      <path
         inkscape:connector-curvature="0"
         id="path993"
         style="font-style:normal;font-variant:normal;font-weight:normal;font-stretch:normal;font-family:UnYetgul;-inkscape-font-specification:UnYetgul;stroke-width:0.91469496;stroke-linecap:square"
         d="m 125.24509,245.91112 h -5.85405 v -1.59523 l 3.27827,-4.34663 h -3.0002 v -1.49278 h 5.42963 v 1.3757 l -3.30754,4.46371 h 3.45389 z" />
      <path
         inkscape:connector-curvature="0"
         id="path995"
         style="font-style:normal;font-variant:normal;font-weight:normal;font-stretch:normal;font-family:UnYetgul;-inkscape-font-specification:UnYetgul;stroke-width:0.91469496;stroke-linecap:square"
         d="m 132.94336,242.55968 h -4.77105 q 0,0.0732 -0.0146,0.21952 0,0.14635 0,0.23416 0,0.64395 0.39515,1.083 0.39515,0.42442 1.03909,0.42442 0.51223,0 0.90738,-0.33661 0.40979,-0.3366 0.40979,-0.8342 l 1.99037,0.14635 q 0,0.30734 -0.2927,0.77566 -0.48296,0.86348 -1.28789,1.3318 -0.80493,0.45369 -1.80012,0.45369 -1.65377,0 -2.66359,-1.03909 -1.00983,-1.05373 -1.00983,-2.72214 0,-1.71231 0.96592,-2.83921 0.96592,-1.1269 2.64896,-1.1269 1.71231,0 2.59042,1.17081 0.89274,1.1708 0.89274,2.94165 z m -2.15137,-1.27326 q -0.0878,-1.55132 -1.24398,-1.55132 -1.25862,0 -1.39034,1.55132 z" />
    </g>
  </g>
</svg>
